<?xml version="1.0" encoding="utf-8"?>
<!-- Generator: Adobe Illustrator 16.0.3, SVG Export Plug-In . SVG Version: 6.00 Build 0)  -->
<!DOCTYPE svg PUBLIC "-//W3C//DTD SVG 1.1//EN" "http://www.w3.org/Graphics/SVG/1.1/DTD/svg11.dtd">
<svg version="1.1" id="Layer_1" xmlns="http://www.w3.org/2000/svg" xmlns:xlink="http://www.w3.org/1999/xlink" x="0px" y="0px"
	 width="851px" height="315px" viewBox="0 0 851 315" enable-background="new 0 0 851 315" xml:space="preserve">
<path fill="#BD1823" d="M246.344,234.281v-157.5c11.813-1.969,23.625-3.938,39.375-3.938c19.688,0,35.438,3.938,45.28,11.813
	c9.844,7.875,13.778,17.719,13.778,29.531c0,7.875-1.971,13.78-7.875,21.655c-3.938,5.904-11.813,11.813-19.688,13.779
	c11.813,1.971,19.688,7.875,25.594,13.779c5.906,7.875,9.846,15.75,9.846,25.596c0,13.779-5.902,25.594-15.75,33.473
	c-9.846,7.875-31.5,13.777-57.094,13.777C271.938,236.25,260.125,236.25,246.344,234.281z M269.969,92.531v51.188h19.688
	c9.848,0,19.688-1.972,25.598-7.875c5.902-3.938,9.844-11.813,9.844-19.688c0-17.719-11.813-25.594-35.438-25.594
	C279.813,90.562,273.906,90.562,269.969,92.531z M269.969,159.469v59.063c3.938,0,9.844,0,17.719,0
	c13.781,0,23.625-1.969,29.531-7.875c7.875-5.905,11.813-11.813,11.813-21.655s-3.938-17.72-11.813-21.651
	c-7.875-5.906-17.72-7.875-29.531-7.875L269.969,159.469L269.969,159.469z"/>
<path fill="#BD1823" d="M464.875,185.063h-59.063l-17.721,49.221h-23.625l55.125-159.469h27.563l57.093,159.469h-23.625
	L464.875,185.063z M411.719,167.344h49.219c-13.779-39.375-21.654-64.972-25.594-74.813
	C431.406,106.312,423.531,131.906,411.719,167.344z"/>
<path fill="#BD1823" d="M638.125,212.625l3.938,17.723c-9.844,5.902-25.594,7.875-43.313,7.875
	c-23.625,0-43.313-7.875-59.063-21.656c-15.75-13.779-21.656-33.469-21.656-59.063c0-23.625,7.875-45.278,23.625-61.028
	s37.406-23.625,63-23.625c15.75,0,29.531,1.969,39.375,7.875l-5.904,17.719c-9.846-3.938-21.654-5.906-33.471-5.906
	c-19.688,0-35.438,5.906-47.25,17.719c-11.813,9.847-17.719,25.597-17.719,45.281c0,19.688,5.904,33.469,15.75,45.28
	c9.844,11.813,27.563,17.72,47.25,17.72C616.469,218.531,628.281,216.563,638.125,212.625z"/>
<path fill="#BD1823" d="M669.625,234.281V74.812h23.625v76.778c3.938-5.903,25.595-31.5,63-76.778h27.563L724.75,141.75
	l64.97,92.531h-25.595L707.031,157.5l-15.75,17.723v59.063L669.625,234.281L669.625,234.281z"/>
<path fill="#BD1823" d="M153.813,232.313L25.844,165.375v-15.75l127.969-64.969v19.688L47.5,157.5l106.313,53.156V232.313z"/>
</svg>
