<?xml version="1.0" encoding="utf-8"?>
<!-- Generator: Adobe Illustrator 16.0.3, SVG Export Plug-In . SVG Version: 6.00 Build 0)  -->
<!DOCTYPE svg PUBLIC "-//W3C//DTD SVG 1.1//EN" "http://www.w3.org/Graphics/SVG/1.1/DTD/svg11.dtd">
<svg version="1.1" id="Шар_1" xmlns="http://www.w3.org/2000/svg" xmlns:xlink="http://www.w3.org/1999/xlink" x="0px" y="0px"
	 width="296.6px" height="77.4px" viewBox="0 0 296.6 77.4" enable-background="new 0 0 296.6 77.4" xml:space="preserve">
<g>
	<g>
		<g>
			<path fill="#FFFFFF" d="M264.4,12.9c11.6,0,21,9.4,21,21c0,3.7-1,7.2-2.7,10.2c0.4,1.2,0.7,2.4,1,3.6c2.8-3.9,4.4-8.7,4.4-13.8
				c0-13.1-10.7-23.8-23.8-23.8c-6.4,0-12.2,2.6-16.5,6.7c1.3,0.1,2.5,0.3,3.7,0.5C255.2,14.6,259.6,12.9,264.4,12.9z"/>
		</g>
		<g>
			<g>
				<polygon fill="#FFFFFF" points="280.7,0.6 281.2,13.6 283.5,5.6 				"/>
			</g>
			<g>
				<polygon fill="#FFFFFF" points="283,15.2 296,13.9 290.5,11.7 				"/>
			</g>
			<g>
				<path fill="#FFFFFF" d="M294.2,13.7"/>
			</g>
			<g>
				<polygon fill="#FFFFFF" points="284,6.4 281.5,15.1 281.5,15.1 289.7,11.3 289.7,11.3 				"/>
			</g>
			<g>
				<polygon fill="#FFFFFF" points="286.8,4.7 284.5,0.8 288.7,2.5 292.9,6.2 295.4,10.2 291,8.4 				"/>
			</g>
			<g>
				<polygon fill="#FFFFFF" points="295.5,11 290.9,9.2 290.9,11 296.6,13.3 				"/>
			</g>
			<g>
				<polygon fill="#FFFFFF" points="286.5,5.5 286.4,5.5 284.6,5.8 290.2,10.7 290.2,8.8 				"/>
			</g>
			<g>
				<polygon fill="#FFFFFF" points="283.7,0.7 281.3,0 284.2,5.1 286,4.9 				"/>
			</g>
		</g>
	</g>
	<g>
		<path fill="#FFFFFF" stroke="#FFFFFF" stroke-width="0.3034" stroke-miterlimit="10" d="M5.2,50.9c-3.5-0.1-5.2-2.1-5-3.9
			c0.1-1,0.8-2,2.3-2.1c1.4,0,2.2,1,2.2,2.2c0,0.3,0,0.6,0,0.9c-0.1,1.8,1.5,1.8,1.7,1.7c5.1-0.2,5.2-7.3,5.2-12.7V20.1
			c0-2-1.3-1.9-2.3-1.9H7.6v-1.2h11.9v1.2h-1.7c-0.8,0-2.3-0.2-2.2,1.9V37C15.5,48.1,9,51,5.2,50.9z"/>
		<path fill="#FFFFFF" stroke="#FFFFFF" stroke-width="0.3034" stroke-miterlimit="10" d="M32.6,30.3c7.3,0,7.3-1.5,7.3-2.4v-1h1.3
			v8.1H40v-1.1c0-0.9,0-2.3-7.3-2.3h-1.9v11.7c0,1.3,0.4,2,2.2,1.9c4.2,0,13.1-0.8,13.2-5.4h1.1l-1.3,6.5h-23v-1.2h1.7
			c0.9,0,2.3,0.2,2.3-1.9V20.1c0-2-1.3-1.9-2.3-1.9h-1.7v-1.2h22.8l0.2,5.9h-1.2l-0.1-1.5v-0.6c-3.3-2.2-6.5-2.5-9.8-2.6
			c-2.7,0-4.1-0.2-4,1.9v10.2H32.6z"/>
		<path fill="#FFFFFF" stroke="#FFFFFF" stroke-width="0.3034" stroke-miterlimit="10" d="M69.3,26l-1.8-5.6
			c-0.6-1.9-2.2-2.1-2.9-2.1h-1.3v-1.2h11.5v1.2h-2.4c-1.1,0-1.3,0.7-1.3,1.1c0,0.1,0.1,0.3,0.1,0.4c0,0.2,0.1,0.4,0.2,0.6l7,20.9
			l5-13.1c0.2-0.4,0.3-0.9,0.5-1.3c0.2-0.8,0.5-1.5,0.8-2.3c0.4-1.3,1.3-4.2,1.1-5.4c-0.2-1-1-0.9-1.4-0.9h-2.1v-1.2h9.8v1.2h-1.4
			h-0.6c-0.9,0.8-1.7,2-2.9,4.6c-0.5,1.1-1,2.3-1.5,3.4c-0.4,0.9-0.8,1.9-1.3,2.9l-6.9,17.7h-1.2l-6.6-18.7l-7.3,18.7h-1.2
			l-9.1-26.4c-0.7-2.1-2.4-2.1-3-2.1h-1v-1.2h11.2v1.2h-2.1c-1.9,0-1.5,1.4-1.3,2.1l7.2,20.9L69.3,26z"/>
		<path fill="#FFFFFF" stroke="#FFFFFF" stroke-width="0.3034" stroke-miterlimit="10" d="M104.1,30.3c7.3,0,7.3-1.5,7.3-2.4v-1h1.3
			v8.1h-1.3v-1.1c0-0.9,0-2.3-7.3-2.3h-1.9v11.7c0,1.3,0.4,2,2.2,1.9c4.2,0,13.1-0.8,13.2-5.4h1.1l-1.3,6.5h-23v-1.2H96
			c0.9,0,2.3,0.2,2.3-1.9V20.1c0-2-1.3-1.9-2.3-1.9h-1.7v-1.2H117l0.2,5.9H116l-0.1-1.5v-0.6c-3.3-2.2-6.5-2.5-9.8-2.6
			c-2.7,0-4.1-0.2-4,1.9v10.2H104.1z"/>
		<path fill="#FFFFFF" stroke="#FFFFFF" stroke-width="0.3034" stroke-miterlimit="10" d="M123.3,18.2h-1.7v-1.2h11.9v1.2h-1.8
			c-0.8,0-2.3-0.2-2.2,1.9v23.1c0,1.3,0.5,2,2.2,1.9c12.6-0.4,12.9-3.9,12.9-4.4l0.1-1h1.2l-0.5,6.5h-23.8v-1.2h1.7
			c0.9,0,2.3,0.2,2.3-1.9V20.1C125.6,18.1,124.3,18.2,123.3,18.2z"/>
		<path fill="#FFFFFF" stroke="#FFFFFF" stroke-width="0.3034" stroke-miterlimit="10" d="M149.4,18.2h-1.7v-1.2h11.9v1.2h-1.8
			c-0.8,0-2.3-0.2-2.2,1.9v23.1c0,1.3,0.5,2,2.2,1.9c12.6-0.4,12.9-3.9,12.9-4.4l0.1-1h1.2l-0.5,6.5h-23.8v-1.2h1.7
			c0.9,0,2.3,0.2,2.3-1.9V20.1C151.7,18.1,150.4,18.2,149.4,18.2z"/>
		<path fill="#FFFFFF" stroke="#FFFFFF" stroke-width="0.3034" stroke-miterlimit="10" d="M183.5,30.3c7.3,0,7.3-1.5,7.3-2.4v-1h1.3
			v8.1h-1.3v-1.1c0-0.9,0-2.3-7.3-2.3h-1.9v11.7c0,1.3,0.4,2,2.2,1.9c4.2,0,13.1-0.8,13.2-5.4h1.1l-1.3,6.5h-23v-1.2h1.7
			c0.9,0,2.3,0.2,2.3-1.9V20.1c0-2-1.3-1.9-2.3-1.9h-1.7v-1.2h22.8l0.2,5.9h-1.2l-0.1-1.5v-0.6c-3.3-2.2-6.5-2.5-9.8-2.6
			c-2.7,0-4.1-0.2-4,1.9v10.2H183.5z"/>
		<path fill="#FFFFFF" stroke="#FFFFFF" stroke-width="0.3034" stroke-miterlimit="10" d="M208.9,43.2c0,2,1.3,1.9,2.2,1.9h1.8v1.2
			h-11.9v-1.2h1.7c1,0,2.3,0.2,2.3-1.9V20.1c0-2-1.4-1.9-2.3-1.9h-1.7v-1.2h5.4c0.9,0,1.8-0.1,2.7-0.1c1.5-0.2,2.9-0.4,4.4-0.5
			c9.6-0.6,12,4.5,12,7.9c-0.1,5.3-5.8,7.9-11.2,7.6c4.6,1.5,6.9,4.3,8.2,6.5c0.8,1.4,1.5,2.8,2.1,4.2c0.4,0.9,1.1,2.3,2,2.3
			c0.9,0,1-1.2,1-2h1.2c0.1,1-0.2,4.1-3.7,3.9c-3.5-0.2-5.6-4.1-7.2-7.7c-0.6-1.4-1.3-2.8-2.2-4.1c-1.8-2.2-4.1-2.8-6.9-3.1V43.2z
			 M208.9,30.8c0.6,0.1,1.3,0.2,1.9,0.2c1,0.1,1.9,0.2,3,0.2c4.7-0.1,7.3-3.1,7.2-6.9c-0.2-3.8-3.1-6.9-7.5-6.7
			c-1.7,0-3,0.4-4.6,1.3V30.8z"/>
	</g>
	<g>
		<path fill="#FFFFFF" d="M264.5,23.3c-0.2,0.4-0.7,0.7-1.5,0.7c-0.6,0-2.3-0.3-5-0.8c-1-0.2-2.6-0.5-4.8-0.9
			c-2.9,1.1-5.4,2.9-7.4,5.5c-0.9,1.2-1.4,2.2-1.4,3.1c0,0.2,0,0.4,0.1,0.5c0.4-0.1,1.1,0.1,2.1,0.4c0.8,0.3,1.2,0.6,1.1,0.8
			c-0.2,0.3-0.6,0.3-1.3,0.2c-0.9-0.3-1.7-0.6-2.1-1c-1.1,0-2.8,0.5-5,1.6c-2.1,1-3.9,2.3-5.4,3.9c-1.5,1.5-2.5,3.1-3,4.6
			c-0.2,0.6-0.3,1.1-0.3,1.7c0,1.8,1.1,2.8,3.3,2.9c1.6,0.1,3.6-0.4,5.9-1.4c2.1-0.9,4.1-2.1,6.1-3.5c0.6-0.5,1.5-1.2,2.7-2.2
			c0.8-0.7,1.2-1,1.3-1c0.1,0,0.2,0.1,0.2,0.2c0,0.1-0.3,0.5-1,1.1c-1,0.9-1.8,1.6-2.5,2.2c-1.9,1.5-4,2.7-6.3,3.7
			c-2.4,1.1-4.5,1.6-6.3,1.6c-1.6,0-2.9-0.4-3.8-1.1c-1.1-0.8-1.6-1.9-1.5-3.3c-1.7-0.1-3-0.8-3.9-1.9c-0.8-1.1-1.3-2.5-1.3-4.1
			c-0.1-3.9,1.8-7.5,5.6-10.8c4.1-3.6,9.4-5.5,15.7-5.5c2.3,0,4.9,0.3,7.7,0.9c2.2-0.7,4.5-1,6.8-1c0.6,0,1.2,0,1.7,0.1
			c1.1,0.1,2,0.4,2.7,0.8c0.6,0.4,0.9,0.9,0.9,1.5C264.6,23,264.6,23.2,264.5,23.3z M250.8,22c-2.1-0.2-4.1-0.3-5.9-0.3
			c-6.2,0-11.3,1.6-15.3,4.8c-1.7,1.4-3.1,3-4.1,4.9c-1,1.9-1.5,3.7-1.4,5.4c0,1.6,0.4,2.8,1.2,3.9c0.8,1,1.9,1.6,3.4,1.7
			c0.2-1.6,1.1-3.3,2.7-5c1.3-1.5,2.8-2.7,4.5-3.6c2.4-1.4,5.1-2.1,8.1-2.2c-0.2-0.3-0.3-0.8-0.3-1.3c0-0.9,0.2-1.7,0.7-2.6
			s1.2-1.8,2.3-2.7C248,23.6,249.3,22.7,250.8,22z M264.1,23.1c0.1-0.1,0.1-0.2,0.1-0.3c0-0.4-0.3-0.8-0.8-1.2
			c-0.5-0.4-1.3-0.6-2.3-0.7c-1.8-0.2-4,0.2-6.4,0.9l3.5,0.9c2.3,0.6,3.8,0.9,4.8,0.9C263.6,23.6,264,23.5,264.1,23.1z"/>
		<path fill="#FFFFFF" d="M263.4,34.1c0.1,0.2,0,0.4-0.2,0.5c-0.4-0.1-0.8-0.2-1.2-0.2c-0.7,0-2.4,1.1-5,3.4
			c-1.3,1.2-2.4,2.4-3.1,3.6c-0.6,1-0.9,1.7-0.9,2.1c0,0.3,0.1,0.4,0.3,0.5c0.6,0.2,1.6-0.3,3-1.3c1.7-1.3,3.1-2.5,4.3-3.6
			c0.3-0.2,0.4-0.3,0.5-0.2c0.1,0.2,0,0.4-0.2,0.5c-1.7,1.6-3.1,2.7-4,3.4c-1.9,1.4-3.3,2-4.2,2c-0.9,0-1.4-0.4-1.4-1.2
			c0-0.8,0.5-1.9,1.6-3.3l-0.2-0.1c-0.5,0.5-1,1-1.5,1.5c-2.2,2.1-3.8,3.1-4.8,3.1c-0.6,0-1-0.2-1.2-0.7c-0.1-0.4,0-0.7,0.2-0.9
			c0.1,0,0.2,0,0.3,0.2c0.3,0.2,0.6,0.2,1,0.2c0.9,0,2.3-0.8,4.1-2.4c0.9-0.8,2.3-2.2,4.1-4.1c1.1-1.2,1.6-2.1,1.6-2.8
			c0-0.3-0.2-0.4-0.5-0.4c-0.5,0-1.5,0.6-2.8,1.8c-1.1,1-2.7,2.5-4.9,4.5c-0.2,0.1-0.3,0.1-0.4,0c-0.1-0.1-0.1-0.2,0.1-0.4l4.6-4.3
			c1.7-1.6,3-2.4,4-2.3c0.8,0.1,1.2,0.4,1.2,1.1c0,0.9-0.8,2.2-2.3,3.8l0.1,0.1c0.4-0.4,1.1-1,2-1.8c0.7-0.6,1.4-1.2,2.1-1.8
			c1.1-0.9,1.9-1.3,2.5-1.3C263.1,33.2,263.4,33.5,263.4,34.1z"/>
		<path fill="#FFFFFF" d="M272.3,29.9c-0.6,0.3-1.2,0.7-1.7,1.1c-3.2,2.8-5.6,5.1-7.3,7.1c1-1,2.3-2,3.8-3c1.9-1.3,3.2-1.9,4-1.9
			c0.6,0,0.9,0.4,0.9,1.2c0,0.7-0.3,1.6-0.8,2.6c-0.6,1-1.2,2-2.1,2.7c-3.5,3.4-6.5,5.1-8.8,5.1c-0.4,0-0.7-0.1-1.1-0.3
			c-0.2-0.1-0.3-0.3-0.3-0.6s0-0.4,0.2-0.4c0.2,0,0.3,0.1,0.3,0.3c0.2,0.3,0.4,0.4,0.7,0.5c0.7,0.1,1.6-0.3,2.5-1
			c1-0.7,2.6-2.2,4.8-4.5c2.4-2.5,3.6-4,3.6-4.5c0-0.2-0.1-0.3-0.3-0.3c-0.7,0-2.2,0.8-4.5,2.5c-2,1.5-3.9,3.1-5.5,4.7
			c-4.7,4.8-8.7,9.3-11.9,13.8c-0.6,0.9-1,1.3-1,1.3c-0.1,0-0.2-0.1-0.2-0.2c0-0.1,0-0.3,0-0.5c0-0.2,0.1-0.4,0.1-0.6
			c0.3-1.3,1.7-3.5,4.3-6.7c2.3-2.8,5.5-6.4,9.8-10.7c2.9-2.9,5.4-5.1,7.5-6.5c0.4-0.2,0.9-0.5,1.5-0.8
			C271.6,29.9,272,29.9,272.3,29.9z"/>
		<path fill="#FFFFFF" d="M282.5,34.3c0,1.3-1.2,3.2-3.5,5.5c-3.3,3.4-5.8,5-7.5,5c-1.1,0-1.7-0.6-1.7-1.8c0-1.6,1-3.4,3-5.5
			c1.3-1.3,2.7-2.4,4.3-3.2c1.5-0.8,2.8-1.2,3.9-1.2C282,33.2,282.5,33.6,282.5,34.3z M281.4,33.7c-1.3,0-3.7,1.8-7.1,5.4
			c-2.2,2.3-3.3,3.8-3.3,4.6c0,0.4,0.2,0.6,0.6,0.6c1.1,0,3.4-1.8,7-5.5c2.2-2.3,3.3-3.8,3.3-4.7C281.9,33.9,281.7,33.7,281.4,33.7z
			"/>
	</g>
	<g>
		<path fill="#FFFFFF" stroke="#FFFFFF" stroke-width="0.3034" stroke-miterlimit="10" d="M127.9,55.5c0-1.6-1.1-1.5-1.8-1.5h-1.4
			v-1h9.7v1h-1.5c-0.7,0-1.8-0.1-1.8,1.5v13.8c0,6,4.4,6.8,6.5,6.9c6.3,0.3,7.2-5.2,7.4-6.6c0.2-1.6,0.2-3.1,0.2-4.6
			c0.1-1.5,0.1-3,0.1-4.6c-0.1-5.5-1-6.2-1.4-6.4h-0.2h-1.6v-1h7.6v1h-1.4h-0.4c-0.8,0.6-1.2,1.6-1.5,6.4c0,0.7,0,1.4,0,2.2
			c-0.4,9-0.6,14.6-8.8,14.7c-9.5,0.1-9.6-6.8-9.6-8.5V55.5z"/>
		<path fill="#FFFFFF" stroke="#FFFFFF" stroke-width="0.3034" stroke-miterlimit="10" d="M153.9,53.9h-1.4v-1h9.7v1h-1.5
			c-0.7,0-1.8-0.1-1.8,1.5v18.8c0,1.6,1.1,1.5,1.8,1.5h1.5v1h-9.7v-1h1.4c0.7,0,1.9,0.1,1.8-1.5V55.5
			C155.8,53.8,154.7,53.9,153.9,53.9z M172.6,74c0.6,0.7,1.6,1.8,3.9,1.8v1H171l-11.2-12.6l5.1-5c0.4-0.4,0.8-0.7,1.2-1.2
			c0.3-0.4,0.7-0.8,1.1-1.2c0.3-0.3,0.7-0.7,1.1-1.1c0.2-0.3,0.6-0.7,0.6-1.2c0-0.7-0.7-0.7-0.9-0.7h-1.7v-1h9v1h-0.9
			c-0.8,0-1.8,0.4-4.8,2.9l-7,6L172.6,74z"/>
		<path fill="#FFFFFF" stroke="#FFFFFF" stroke-width="0.3034" stroke-miterlimit="10" d="M184.4,74.3c0,1.6,1.1,1.5,1.8,1.5h1.5v1
			H178v-1h1.4c0.8,0,1.8,0.1,1.8-1.5V55.5c0-1.6-1.1-1.5-1.8-1.5H178v-1h4.4c0.8,0,1.5-0.1,2.2-0.1c1.2-0.2,2.4-0.3,3.6-0.4
			c7.9-0.5,9.8,3.7,9.8,6.4c-0.1,4.3-4.8,6.4-9.1,6.2c3.8,1.2,5.6,3.5,6.7,5.3c0.7,1.1,1.2,2.3,1.7,3.5c0.3,0.8,0.9,1.8,1.6,1.8
			c0.8,0,0.9-1,0.9-1.6h1c0.1,0.8-0.1,3.4-3,3.2c-2.8-0.2-4.6-3.4-5.9-6.3c-0.5-1.2-1-2.3-1.8-3.3c-1.4-1.8-3.4-2.3-5.6-2.5V74.3z
			 M184.4,64.2c0.5,0.1,1,0.1,1.5,0.2c0.8,0.1,1.6,0.2,2.4,0.2c3.8-0.1,6-2.5,5.9-5.6c-0.1-3.1-2.5-5.6-6.1-5.4
			c-1.3,0-2.5,0.3-3.7,1.1V64.2z"/>
		<path fill="#FFFFFF" stroke="#FFFFFF" stroke-width="0.3034" stroke-miterlimit="10" d="M207.1,69.5c-0.2,0.5-0.4,1-0.6,1.5
			c-0.2,0.5-0.3,1-0.5,1.5c-0.2,0.5-0.3,1.1-0.4,1.7c0,1,0.3,1.3,0.9,1.6h0.3h1.2v1H201v-1h0.8h0.3c1.4-1,3-3.2,9.9-22.8h1.4
			l7.6,20.7c0.3,0.7,0.6,2.1,2.3,2.1h0.8v1h-8.8v-1h1.3c0.4,0,1.3,0.1,1.4-0.9c0-0.4-0.1-1-0.8-2.7l-1.6-4.8h-7.8L207.1,69.5z
			 M215.3,66.5l-3.5-9.7l-3.6,9.7H215.3z"/>
		<path fill="#FFFFFF" stroke="#FFFFFF" stroke-width="0.3034" stroke-miterlimit="10" d="M226.8,53.9h-1.4v-1h9.7v1h-1.5
			c-0.7,0-1.8-0.1-1.8,1.5v18.8c0,1.6,1.1,1.5,1.8,1.5h1.5v1h-9.7v-1h1.4c0.7,0,1.9,0.1,1.8-1.5V55.5
			C228.7,53.8,227.6,53.9,226.8,53.9z"/>
		<path fill="#FFFFFF" stroke="#FFFFFF" stroke-width="0.3034" stroke-miterlimit="10" d="M261.7,53.9h-1.2h-0.6
			c-0.7,0.6-1.3,1.5-1.4,5.5c-0.1,0.4-0.1,0.8-0.1,1.3c0,0.3,0,0.5,0,0.8l-0.2,15.7h-1.1l-14.9-19l0.1,10.9c0,4.9,0.3,6,1,6.7h0.2
			h1.6v1h-7.2v-1h1.2h0.6c1.2-1,1.4-5,1.4-6.7l0.1-12.3l-3.3-3.8h4.3l14.9,19.3V59.8c0-0.3,0-0.7-0.1-1.1c0-0.4,0-0.9,0-1.3
			c-0.2-2.5-0.8-3.2-1.3-3.5h-0.5h-1.2v-1h7.8V53.9z"/>
		<path fill="#FFFFFF" stroke="#FFFFFF" stroke-width="0.3034" stroke-miterlimit="10" d="M272.4,63.7c6,0,6-1.2,6-1.9v-0.9h1v6.6
			h-1v-0.9c0-0.8,0-1.9-6-1.9h-1.6v9.6c0,1.1,0.3,1.6,1.8,1.5c3.4,0,10.7-0.7,10.7-4.4h0.9l-1.1,5.3h-18.8v-1h1.4
			c0.7,0,1.9,0.1,1.8-1.5V55.5c0-1.6-1.1-1.5-1.8-1.5h-1.4v-1H283l0.1,4.8h-1l-0.1-1.3V56c-2.7-1.8-5.3-2-8-2.1
			c-2.2,0-3.3-0.2-3.3,1.6v8.3H272.4z"/>
	</g>
</g>
</svg>
