<?xml version="1.0" encoding="utf-8"?>
<!-- Generator: Adobe Illustrator 16.0.3, SVG Export Plug-In . SVG Version: 6.00 Build 0)  -->
<!DOCTYPE svg PUBLIC "-//W3C//DTD SVG 1.1//EN" "http://www.w3.org/Graphics/SVG/1.1/DTD/svg11.dtd">
<svg version="1.1" id="Шар_1" xmlns="http://www.w3.org/2000/svg" xmlns:xlink="http://www.w3.org/1999/xlink" x="0px" y="0px"
	 width="71.1px" height="70.3px" viewBox="0 0 71.1 70.3" enable-background="new 0 0 71.1 70.3" xml:space="preserve">
<g>
	<g>
		<path fill="#FFFFFF" d="M33.3,2l-0.2,0c-0.1-0.4-0.2-0.7-0.3-1c-0.2-0.4-0.5-0.6-0.8-0.6l-0.2,0l0.3,5.1l0.5,0l0,0.2l-1.9,0.1
			l0-0.2l0.5,0l-0.3-5.1l-0.2,0c-0.3,0-0.5,0.2-0.6,0.5c-0.2,0.3-0.2,0.7-0.3,1.2l-0.2,0l-0.1-1.8l3.6-0.2L33.3,2z M47.9,8.1
			c-0.1,0-0.2,0.1-0.3,0.1c-0.1,0-0.2,0-0.3,0l-0.2-0.1c-0.3-0.1-0.4-0.3-0.5-0.5c0-0.3,0.1-0.7,0.3-1.3c0.2-0.5,0.2-0.8,0.2-1
			C47.1,5.1,47,5,46.8,4.9l-0.3-0.1l-0.9,2.4L46,7.4l-0.1,0.2l-1.8-0.7l0.1-0.2l0.5,0.2l1.8-4.8L46,1.9l0.1-0.2l1.8,0.7l-0.1,0.2
			l-0.5-0.2l-0.8,2.2l0.3,0.1c0.2,0.1,0.4,0.1,0.5,0c0.1-0.1,0.3-0.3,0.4-0.7c0.2-0.6,0.4-1,0.6-1.1c0.2-0.2,0.4-0.2,0.7-0.1
			c0.2,0.1,0.4,0.2,0.4,0.4c0,0.2,0,0.3,0,0.5c-0.1,0.2-0.2,0.3-0.3,0.4c-0.1,0.1-0.3,0.1-0.4,0c-0.1,0-0.2-0.1-0.3-0.3
			c0-0.1,0-0.3,0-0.4l0-0.1c0-0.1,0.1-0.1,0.1-0.2c0-0.1,0-0.2,0-0.2c-0.1,0-0.2,0-0.4,0.3c-0.1,0.2-0.2,0.5-0.4,0.8
			c-0.1,0.3-0.2,0.5-0.3,0.6c-0.1,0.1-0.2,0.2-0.3,0.2l0,0c0.4,0.1,0.6,0.4,0.7,0.7c0.1,0.3,0.1,0.6,0,1L47.8,7
			c-0.1,0.3-0.2,0.5-0.2,0.7c0,0.2,0,0.3,0.1,0.3c0.1,0,0.1,0,0.2,0L47.9,8.1z M51.5,10.3l-1.6-0.9l0.1-0.2l0.4,0.2l2-3.6l-3.1,2.7
			l-0.2,0.3L49.5,9l-0.1,0.2l-1.6-0.9l0.1-0.2l0.4,0.2l2.5-4.5l-0.4-0.2l0.1-0.2l1.6,0.9L52,4.5l-0.4-0.2l-2,3.7l3-2.7L52.8,5
			l-0.4-0.2l0.1-0.2l1.6,0.9L54,5.7l-0.4-0.2l-2.5,4.5l0.4,0.2L51.5,10.3z M53.3,11.7l-1.6-1.1l0.1-0.2l0.4,0.3l3-4.2l-0.4-0.3
			L55,6.1l1.6,1.1l-0.1,0.2L56,7.1l-3,4.2l0.4,0.3L53.3,11.7z M56.1,5.8C56,5.9,55.9,6,55.8,6c-0.1,0-0.2,0-0.3-0.1
			c-0.1-0.1-0.2-0.2-0.2-0.3c0-0.1,0-0.2,0.1-0.3c0.1-0.1,0.2-0.2,0.4-0.2c0.1,0,0.1,0,0.2,0.1c0.1,0.1,0.2,0.2,0.2,0.3
			C56.2,5.6,56.2,5.7,56.1,5.8z M57.2,6.6c-0.2,0.2-0.4,0.3-0.6,0.1c-0.1-0.1-0.2-0.2-0.2-0.3c0-0.1,0-0.2,0.1-0.3
			c0.1-0.1,0.2-0.2,0.4-0.2C57,5.9,57.1,6,57.1,6c0.1,0.1,0.2,0.2,0.2,0.3C57.3,6.4,57.3,6.5,57.2,6.6z M57.4,13.3
			c-0.3,0.3-0.7,0.5-1.1,0.5c-0.4,0-0.8-0.2-1.2-0.5L53.7,12l0.1-0.1l0.4,0.3l3.5-3.8L57.3,8l0.1-0.1l1.4,1.3
			c0.4,0.4,0.7,0.8,0.7,1.1c0,0.3-0.1,0.6-0.3,0.8c-0.2,0.3-0.5,0.4-0.8,0.4c-0.3,0-0.6-0.1-1-0.3l0,0c0.3,0.5,0.4,0.9,0.4,1.3
			C57.7,12.8,57.6,13,57.4,13.3z M56.5,12.8l0.4-0.4c0.2-0.2,0.3-0.4,0.4-0.6c0.1-0.3,0-0.5-0.2-0.8l-0.3-0.3l-1.9,2.1l0.3,0.2
			c0.3,0.3,0.5,0.3,0.8,0.3C56,13.2,56.2,13.1,56.5,12.8z M58.2,10.7l0.4-0.4c0.1-0.1,0.2-0.2,0.2-0.3c0.1-0.3,0.1-0.5-0.2-0.8
			L58.3,9l-1.4,1.6l0.3,0.3c0.2,0.1,0.3,0.2,0.5,0.2C57.9,11,58,10.9,58.2,10.7z M41.2,4.4c-0.1,0.5-0.3,0.8-0.6,1.1
			c-0.4,0.2-0.8,0.3-1.3,0.3l-1.9-0.2l0-0.2l0.5,0.1l0.6-5.1L38,0.3l0-0.2l1.9,0.2c0.6,0.1,1,0.2,1.3,0.5c0.2,0.2,0.3,0.5,0.3,0.9
			c0,0.4-0.2,0.6-0.4,0.8c-0.2,0.2-0.6,0.3-1,0.3v0c0.5,0.2,0.9,0.5,1.1,0.8C41.2,3.9,41.2,4.1,41.2,4.4z M40.1,4.6L40.2,4
			c0-0.3,0-0.6,0-0.7c-0.1-0.3-0.3-0.4-0.6-0.5l-0.4-0.1l-0.3,2.8l0.4,0.1c0.4,0,0.6-0.1,0.7-0.3C40,5.2,40.1,5,40.1,4.6z M40.3,1.9
			l0.1-0.6c0-0.1,0-0.2,0-0.3c0-0.3-0.2-0.5-0.6-0.5l-0.5-0.1l-0.2,2.1l0.4,0c0.2,0,0.4,0,0.5-0.1C40.2,2.4,40.3,2.2,40.3,1.9z
			 M60.1,15.8L58.6,17l-0.1-0.2c0-0.1,0.1-0.2,0.1-0.2c0,0,0-0.1-0.1-0.1c0,0-0.1-0.1-0.2-0.1c-0.1,0-0.1-0.1-0.2-0.1
			c-0.1,0-0.1,0-0.2-0.1c-0.1,0-0.1-0.1-0.2-0.2c-0.4-0.4-0.5-1-0.2-1.7c0.2-0.6,0.6-1.2,1.1-1.7c0.5-0.4,1.1-0.7,1.8-0.8
			c0.7-0.1,1.2,0,1.6,0.5c0.1,0.1,0.2,0.2,0.2,0.4c0,0,0.1,0.2,0.1,0.4c0,0.1,0,0.1,0.1,0.1c0,0,0.1,0.1,0.1,0.1c0,0,0.1,0,0.1,0
			l0.1,0.2l-1.3,1.2l-0.1-0.1c0.4-0.4,0.6-0.8,0.6-1.1c0.1-0.4,0.1-0.6-0.1-0.8c-0.2-0.2-0.5-0.3-0.8-0.2c-0.3,0.1-0.7,0.4-1.3,0.8
			l-0.9,0.7c-0.6,0.5-1,0.9-1.1,1.3c-0.1,0.3-0.1,0.6,0,0.7c0.2,0.2,0.4,0.3,0.8,0.3c0.4,0,0.9-0.2,1.4-0.6L60.1,15.8z M61.9,19.2
			c-0.5,0.3-1,0.4-1.4,0.2c-0.3-0.1-0.6-0.4-0.8-0.7l-1-1.5l0.2-0.1l0.3,0.4l4.3-2.9l-0.3-0.4l0.2-0.1l1.1,1.6l-0.1,0.1l-0.3-0.4
			l-1.8,1.2l0.1,0.2c0.3,0.4,0.4,0.9,0.4,1.3C62.5,18.5,62.3,18.9,61.9,19.2z M61.1,18.5l0.5-0.4c0.3-0.2,0.5-0.4,0.6-0.5
			c0.1-0.2,0.1-0.4-0.1-0.6L62,16.7l-2.3,1.5l0.1,0.2c0.1,0.2,0.3,0.3,0.5,0.3C60.5,18.8,60.7,18.7,61.1,18.5z M62.6,23.6
			c-0.1,0-0.2-0.1-0.3-0.2c-0.1-0.1-0.1-0.1-0.2-0.2L62,23c-0.1-0.3-0.1-0.5,0-0.7c0.2-0.2,0.5-0.4,1.1-0.7c0.4-0.2,0.7-0.4,0.8-0.6
			c0.1-0.2,0.1-0.4,0-0.6l-0.2-0.3l-2.3,1.2l0.2,0.4l-0.2,0.1l-0.8-1.7l0.2-0.1l0.2,0.4l4.6-2.3l-0.2-0.4l0.2-0.1l0.8,1.7l-0.2,0.1
			L66.1,19l-2.1,1l0.1,0.3c0.1,0.2,0.2,0.3,0.3,0.3c0.2,0,0.4,0,0.8-0.2c0.6-0.3,1-0.4,1.2-0.4c0.3,0,0.5,0.1,0.6,0.4
			c0.1,0.2,0.1,0.4,0,0.6c-0.1,0.2-0.2,0.3-0.4,0.3c-0.2,0.1-0.3,0.1-0.5,0.1c-0.2,0-0.3-0.1-0.3-0.3c-0.1-0.1-0.1-0.3,0-0.4
			c0.1-0.1,0.2-0.2,0.3-0.3l0.1-0.1c0.1,0,0.1,0,0.2,0c0.1-0.1,0.1-0.1,0.1-0.1c-0.1-0.1-0.2-0.1-0.5,0c-0.2,0.1-0.5,0.2-0.8,0.3
			c-0.3,0.1-0.5,0.2-0.6,0.2c-0.1,0-0.3,0-0.4-0.1l0,0c0.2,0.3,0.2,0.7,0.1,1c-0.1,0.3-0.4,0.5-0.7,0.7l-0.3,0.1
			c-0.3,0.1-0.5,0.3-0.7,0.4c-0.1,0.1-0.2,0.2-0.1,0.3c0,0,0.1,0.1,0.1,0.1L62.6,23.6z M63.7,27.6l-0.6-1.7l0.2-0.1l0.1,0.4l4-1.3
			l-4.1-0.1L63,24.9l0.1,0.4L63,25.3l-0.6-1.7l0.2,0l0.2,0.5l4.9-1.6l-0.2-0.5l0.2-0.1l0.6,1.7L68,23.7l-0.1-0.4l-4,1.3l4.1,0.1
			l0.4-0.1l-0.1-0.4l0.2-0.1l0.6,1.7l-0.2,0.1l-0.2-0.5L63.7,27l0.1,0.5L63.7,27.6z M64.4,31.9l-0.3-1.8l0.2,0l0.1,0.4l4.1-0.7
			l-4-0.7l-0.3,0.1l0.1,0.4l-0.2,0l-0.3-1.8l0.2,0l0.1,0.5l5.1-0.8L69,26.9l0.2,0l0.3,1.8l-0.2,0l-0.1-0.4L65.1,29l4,0.7l0.4-0.1
			l-0.1-0.4l0.2,0l0.3,1.8l-0.2,0l-0.1-0.5l-5.1,0.8l0.1,0.5L64.4,31.9z M70.7,29.8c-0.3,0-0.5,0-0.6-0.2c-0.1-0.2-0.2-0.4-0.3-0.7
			c-0.1-0.3,0-0.6,0.1-0.8c0.1-0.2,0.3-0.3,0.5-0.4c0.1,0,0.3,0,0.4,0.1c0.1,0.1,0.1,0.2,0.2,0.3c0,0.1,0,0.2-0.1,0.3
			c-0.1,0.1-0.2,0.1-0.3,0.2c-0.1,0-0.1,0-0.2,0c-0.1,0-0.1-0.1-0.1-0.1c-0.1,0-0.1,0-0.1,0c-0.1,0-0.2,0.1-0.2,0.2
			c0,0.1,0,0.2,0,0.3c0,0.2,0.1,0.3,0.1,0.4c0,0.1,0.1,0.1,0.2,0.1c0,0,0.1,0,0.1-0.1c0,0,0.1-0.1,0.1-0.1c0.1-0.1,0.1-0.1,0.2-0.1
			c0.1,0,0.2,0,0.3,0c0.1,0.1,0.2,0.1,0.2,0.3c0,0.1,0,0.2-0.1,0.3C70.9,29.7,70.8,29.8,70.7,29.8z M64.1,39.7l0.2-1.9l0.2,0l0,0.5
			l4.9,0.5L64.3,37l0-0.1l5.2-0.8l-3.8-0.4c-0.4,0-0.7,0-0.8,0c-0.2,0.1-0.3,0.2-0.3,0.3l-0.2,0l0.1-1.2l0.2,0
			c0,0.2,0.1,0.3,0.3,0.4c0.2,0.1,0.4,0.2,0.8,0.2l3.2,0.3c0.3,0,0.5,0,0.6,0c0.1,0,0.2-0.2,0.3-0.4l0.2,0l-0.1,1.5l-3.6,0.6
			l3.4,1.2l-0.1,1.5l-0.2,0l0-0.5l-5.1-0.5l0,0.5L64.1,39.7z M63.5,41.8l0.4-1.9l0.2,0L64,40.4l5,1.1l0.1-0.5l0.2,0L68.9,43l-0.2,0
			l0.1-0.5l-5-1.1l-0.1,0.5L63.5,41.8z M61.7,47.5c-0.1-0.2-0.1-0.5,0-0.7c0.1-0.3,0.3-0.5,0.6-0.5c0.2,0,0.5,0.1,1,0.2
			c0.6,0.2,0.9,0.3,1.2,0.3c0.2,0,0.4-0.2,0.4-0.4l0.1-0.3l-2.4-0.9l-0.2,0.5l-0.2-0.1l0.7-1.8l0.2,0.1l-0.2,0.5l2.4,0.9l0.1-0.3
			c0.1-0.2,0.1-0.4-0.1-0.6c-0.1-0.2-0.5-0.4-1-0.6c-0.4-0.2-0.7-0.3-0.9-0.5c-0.2-0.2-0.3-0.5-0.2-0.8c0-0.1,0.1-0.2,0.2-0.3
			c0.1-0.1,0.2-0.2,0.3-0.2l0.1,0.1c-0.1,0-0.1,0.1-0.1,0.1c0,0.1,0,0.2,0.1,0.3c0.1,0.1,0.3,0.2,0.4,0.2c0.1,0,0.1,0.1,0.2,0.1
			c0.1,0,0.2,0.1,0.2,0.1c0.3,0.1,0.6,0.3,0.8,0.5c0.3,0.3,0.3,0.7,0.2,1.2c0.1-0.1,0.2-0.1,0.4-0.1c0.1,0,0.4,0.1,0.6,0.2
			c0.4,0.1,0.6,0.2,0.7,0.3c0.3,0.1,0.5,0,0.5-0.1c0,0,0-0.1-0.1-0.1c0,0-0.1,0-0.1,0c0,0-0.1,0-0.1,0c0,0-0.1,0-0.2-0.1
			c-0.1-0.1-0.2-0.1-0.3-0.3c0-0.1,0-0.2,0-0.4c0.1-0.2,0.2-0.3,0.4-0.3c0.1,0,0.3,0,0.4,0.1c0.2,0.1,0.3,0.2,0.4,0.4
			c0.1,0.2,0.1,0.3,0,0.6c-0.1,0.3-0.3,0.4-0.6,0.5c-0.2,0-0.5,0-0.9-0.2c-0.5-0.2-0.9-0.3-1-0.3c-0.2,0-0.3,0.1-0.4,0.4l-0.1,0.2
			l2.2,0.8l0.2-0.5l0.2,0.1l-0.7,1.8l-0.2-0.1l0.2-0.5l-2.2-0.8l-0.1,0.2c-0.1,0.3-0.1,0.4,0,0.6c0.1,0.1,0.4,0.3,1,0.5
			c0.4,0.1,0.6,0.3,0.8,0.5c0.2,0.2,0.2,0.5,0.1,0.8C67,48.8,66.9,49,66.7,49c-0.2,0.1-0.4,0.1-0.5,0c-0.1-0.1-0.3-0.1-0.4-0.3
			c-0.1-0.1-0.1-0.3-0.1-0.5c0-0.1,0.1-0.2,0.2-0.3c0.1-0.1,0.2-0.1,0.4,0c0.1,0,0.2,0.1,0.2,0.1c0,0,0.1,0,0.1,0.1
			c0,0,0.1,0.1,0.1,0.1c0.1,0,0.2,0,0.2,0c0-0.1,0-0.2-0.2-0.4c-0.2-0.1-0.5-0.2-0.8-0.4c-0.3-0.1-0.5-0.2-0.6-0.3
			C65.1,47.1,65,47,65,46.8c-0.2,0.4-0.5,0.7-0.9,0.7c-0.3,0-0.6,0-0.9-0.1c0,0-0.1,0-0.2-0.1c-0.1,0-0.2-0.1-0.2-0.1
			c-0.2-0.1-0.4-0.1-0.5-0.1c-0.1,0-0.2,0.1-0.2,0.2c0,0,0,0.1,0,0.2L61.7,47.5L61.7,47.5z M59.3,51.1l0.9-1.6l0.2,0.1L60.2,50
			l2.2,1.3l0.7-1.2l-2.3-1.4l-0.2,0.4l-0.2-0.1l0.9-1.6l0.2,0.1L61.3,48l4.4,2.6l0.2-0.4l0.2,0.1l-0.9,1.6l-0.2-0.1l0.2-0.4l-2-1.2
			l-0.7,1.2l2,1.2l0.2-0.4l0.2,0.1L64,53.9l-0.2-0.1l0.3-0.4l-4.4-2.6l-0.3,0.4L59.3,51.1z M57,53.9l1.1-1.4l0.1,0.1L57.9,53
			l1.4,0.6l0.8-1l-0.2-0.3L59.6,52c-0.1-0.1-0.1-0.1-0.2-0.1c0,0-0.1,0-0.1-0.1c-0.1,0-0.2,0-0.3,0c-0.1,0-0.2,0.1-0.3,0.2l-0.2-0.1
			l0.8-1.1l0.2,0.1c-0.1,0.1-0.1,0.3-0.1,0.5c0,0.1,0.2,0.3,0.4,0.6l2.8,3.7l-0.2,0.3l-5.1-2.3L57.1,54L57,53.9z M59.5,53.7l2.2,1
			l-1.4-1.9L59.5,53.7z M57.4,59.2c-0.4-0.4-0.6-0.8-0.6-1.2s0.3-0.8,0.7-1.2l0.3-0.3l-1.5-1.5l-0.4,0.4l-0.1-0.1l1.4-1.4l0.1,0.1
			l-0.3,0.4l3.6,3.7l0.4-0.4l0.1,0.1L59.7,59c-0.5,0.5-0.9,0.7-1.3,0.7C58,59.7,57.7,59.5,57.4,59.2z M57.9,58.3l0.4,0.4
			c0.2,0.2,0.4,0.4,0.6,0.4c0.2,0,0.5-0.1,0.7-0.3l0.2-0.2l-1.9-2l-0.2,0.2c-0.2,0.2-0.4,0.4-0.4,0.6C57.4,57.6,57.5,57.9,57.9,58.3
			z M53,60.9c-0.5-0.6-0.7-1.3-0.7-1.9c0-0.7,0.2-1.2,0.6-1.5c0.4-0.3,0.9-0.4,1.5-0.2c0.7,0.2,1.2,0.6,1.7,1.3
			c0.5,0.7,0.8,1.3,0.7,2c0,0.6-0.2,1.1-0.6,1.4c-0.4,0.3-0.9,0.4-1.5,0.2C54.1,62,53.5,61.6,53,60.9z M53.3,59.6l1.1,1.4
			c0.3,0.4,0.6,0.7,0.9,0.9c0.3,0.2,0.6,0.2,0.9,0c0.3-0.2,0.4-0.6,0.2-1c-0.1-0.3-0.3-0.6-0.5-0.9l-1.1-1.4c-0.4-0.5-0.7-0.8-1-0.9
			c-0.3-0.1-0.5-0.1-0.7,0.1c-0.3,0.2-0.4,0.5-0.3,0.9C52.8,58.8,53,59.2,53.3,59.6z M47.1,59.3l0.2-0.1c0.4,0.5,0.8,0.8,1.2,0.9
			c0.2,0,0.5,0,0.7-0.1l1.1-0.6c0.2-0.1,0.4-0.3,0.5-0.5c0.1-0.3,0-0.8-0.3-1.4l0.2-0.1l0.8,1.6L51,59.1c0,0.3,0,0.5,0.1,0.8
			c0.1,0.2,0.2,0.5,0.4,0.8l1,2c0,0.1,0.1,0.2,0.1,0.3c0,0.1,0.1,0.2,0.1,0.3c0.1,0.2,0.2,0.4,0.3,0.4c0.1,0.1,0.3,0.1,0.4,0
			c0.1,0,0.1,0,0.1-0.1l0.1,0.2l-3,1.7l-0.1-0.1L51,65l-2.5-4.5L48,60.8L47.1,59.3z M49.3,60.1l2.5,4.5l0.6-0.3
			c0.2-0.1,0.3-0.2,0.3-0.3c0-0.1-0.1-0.4-0.3-0.8l-1.2-2.3c-0.2-0.4-0.3-0.7-0.4-0.9c0-0.2-0.1-0.4-0.1-0.6L49.3,60.1z M43.9,62.2
			l1.7-0.6l0.1,0.2l-0.4,0.2l0.9,2.5l1.3-0.5l-0.9-2.5l-0.4,0.1l-0.1-0.2l1.7-0.6l0.1,0.2L47.4,61l1.8,4.8l0.5-0.2l0.1,0.2l-1.7,0.6
			L48,66.3l0.4-0.2L47.6,64l-1.3,0.5l0.8,2.2l0.4-0.2l0.1,0.2l-1.7,0.7l-0.1-0.2l0.5-0.2l-1.8-4.8L44,62.3L43.9,62.2z M39.6,63.1
			l1.8-0.4l0,0.2L41.1,63l0.9,4.1l0.5-4l-0.1-0.3L42,62.8l0-0.2l1.8-0.4l0,0.2l-0.5,0.1l1.1,5l0.5-0.1l0,0.2L43.1,68l0-0.2l0.4-0.1
			l-0.9-4.1l-0.5,4l0.1,0.4l0.4-0.1l0,0.2l-1.8,0.4l0-0.2l0.5-0.1l-1.1-5l-0.5,0.1L39.6,63.1z M35.3,63.4l1.8-0.1l0,0.2l-0.4,0
			l0.2,4.2l1.1-3.9l0-0.3l-0.4,0l0-0.2l1.8-0.1l0,0.2l-0.5,0l0.3,5.1l0.5,0l0,0.2l-1.8,0.1l0-0.2l0.4,0l-0.3-4.2L37,68.2l0,0.4
			l0.4,0l0,0.2l-1.8,0.1l0-0.2l0.5,0l-0.3-5.1l-0.5,0L35.3,63.4z M36.7,69.8c0-0.3,0.1-0.5,0.3-0.6c0.2-0.1,0.4-0.2,0.7-0.2
			c0.3,0,0.6,0,0.8,0.1c0.2,0.1,0.3,0.3,0.3,0.5c0,0.1,0,0.3-0.1,0.4c-0.1,0.1-0.2,0.1-0.3,0.1c-0.1,0-0.2,0-0.3-0.1
			C38.1,70,38,69.9,38,69.8c0-0.1,0-0.1,0-0.2c0-0.1,0.1-0.1,0.1-0.1c0,0,0-0.1,0-0.1c0-0.1-0.1-0.2-0.1-0.2c-0.1,0-0.2,0-0.3,0
			c-0.2,0-0.3,0-0.4,0.1c-0.1,0-0.1,0.1-0.1,0.2c0,0,0,0,0,0.1c0,0,0.1,0.1,0.1,0.1c0.1,0.1,0.1,0.1,0.1,0.2c0,0.1,0,0.2-0.1,0.3
			c-0.1,0.1-0.1,0.1-0.3,0.2c-0.1,0-0.2,0-0.3-0.1C36.8,70.1,36.7,70,36.7,69.8z M28.3,62.6c0.1-0.1,0.2-0.1,0.3-0.1
			c0.1,0,0.2,0,0.3,0l0.2,0c0.3,0.1,0.5,0.2,0.5,0.4c0.1,0.2,0,0.7-0.1,1.3c-0.1,0.5-0.1,0.8,0,1c0.1,0.2,0.2,0.3,0.5,0.3l0.4,0.1
			l0.5-2.5L30.3,63l0-0.2l1.9,0.3l0,0.2l-0.5-0.1l-0.9,5.1l0.5,0.1l0,0.2l-1.9-0.3l0-0.2l0.5,0.1l0.4-2.3L30,65.8
			c-0.2,0-0.4,0-0.5,0.1c-0.1,0.1-0.2,0.4-0.3,0.8c-0.1,0.6-0.3,1-0.4,1.2c-0.2,0.2-0.4,0.3-0.7,0.2c-0.2,0-0.4-0.2-0.5-0.3
			c-0.1-0.2-0.1-0.3-0.1-0.5c0-0.2,0.1-0.3,0.2-0.4c0.1-0.1,0.2-0.2,0.4-0.1c0.1,0,0.3,0.1,0.3,0.2c0.1,0.1,0.1,0.3,0.1,0.4l0,0.1
			c0,0.1-0.1,0.1-0.1,0.2c0,0.1,0,0.1,0.1,0.2c0.1,0,0.2-0.1,0.3-0.3c0.1-0.2,0.2-0.5,0.2-0.8c0.1-0.3,0.1-0.5,0.2-0.6
			c0.1-0.1,0.2-0.2,0.3-0.3l0,0c-0.4-0.1-0.6-0.3-0.8-0.5c-0.2-0.3-0.2-0.6-0.1-1l0.1-0.3c0-0.3,0.1-0.6,0.1-0.8
			c0-0.2-0.1-0.3-0.2-0.3c0,0-0.1,0-0.2,0L28.3,62.6z M23.9,63.8c0.3-0.7,0.6-1.3,1.2-1.7c0.5-0.4,1-0.5,1.6-0.4
			c0.5,0.2,0.8,0.5,1,1.1c0.2,0.6,0.2,1.4-0.1,2.2c-0.3,0.8-0.7,1.4-1.2,1.8c-0.5,0.4-1,0.5-1.5,0.3c-0.5-0.2-0.8-0.5-1-1.1
			C23.6,65.3,23.6,64.6,23.9,63.8z M25.1,63.3L24.6,65c-0.2,0.5-0.2,0.9-0.2,1.2c0,0.4,0.2,0.6,0.5,0.7c0.3,0.1,0.7,0,0.9-0.5
			c0.2-0.2,0.3-0.5,0.5-0.9l0.6-1.7c0.2-0.6,0.3-1,0.2-1.4c-0.1-0.3-0.2-0.5-0.5-0.6c-0.3-0.1-0.6,0-0.9,0.3
			C25.5,62.5,25.3,62.8,25.1,63.3z M20.8,59.3l1.6,0.8l-0.1,0.2L22,60.1l-1.2,2.3L22,63l1.2-2.4l-0.4-0.2l0.1-0.2l1.6,0.8l-0.1,0.2
			L24,61.1l-2.3,4.6l0.4,0.2L22,66.1l-1.6-0.8l0.1-0.2l0.4,0.2l1.1-2.1l-1.2-0.6l-1,2.1l0.4,0.2L19.9,65l-1.6-0.8l0.1-0.2l0.4,0.2
			l2.3-4.6l-0.4-0.2L20.8,59.3z M15.6,60.2l0.2,0.1c-0.2,0.4-0.3,0.7-0.4,1c-0.1,0.4,0,0.7,0.3,0.9l0.1,0.1l2.9-4.2l-0.4-0.3
			l0.1-0.2l1.6,1.1l-0.1,0.2l-0.4-0.3l-2.9,4.2l0.1,0.1c0.2,0.2,0.5,0.2,0.8,0c0.3-0.1,0.6-0.4,1-0.8l0.2,0.1l-1.1,1.4l-3-2.1
			L15.6,60.2z M12.3,57.6c0.4-0.4,0.8-0.6,1.2-0.6c0.4,0,0.8,0.2,1.3,0.6l0.3,0.3l1.5-1.6l-0.4-0.4l0.1-0.1l1.5,1.3l-0.1,0.1
			l-0.4-0.3l-3.4,3.8l0.4,0.3L14,61.2l-1.4-1.2c-0.5-0.4-0.7-0.9-0.7-1.3C11.9,58.3,12,57.9,12.3,57.6z M13.2,58.1l-0.4,0.4
			c-0.2,0.3-0.4,0.5-0.4,0.6c0,0.2,0.1,0.4,0.4,0.7l0.3,0.2L15,58l-0.2-0.2c-0.3-0.2-0.5-0.3-0.6-0.3C13.9,57.5,13.6,57.7,13.2,58.1
			z M12.7,51.9l1.2,1.4l-0.1,0.1L13.4,53l-0.8,1.2l0.8,0.9l0.3-0.2l0.4-0.2c0.1,0,0.1-0.1,0.2-0.1c0,0,0-0.1,0.1-0.1
			c0.1-0.1,0.1-0.2,0.1-0.3c0-0.1-0.1-0.2-0.2-0.3l0.1-0.1l0.9,1L15.1,55c-0.1-0.1-0.3-0.2-0.5-0.1c-0.1,0-0.3,0.1-0.6,0.3l-4.1,2.1
			l-0.3-0.3l3.2-4.6l-0.2-0.3L12.7,51.9z M12.4,54.4l-1.4,2l2.1-1.1L12.4,54.4z M10.5,49c0.1,0,0.2,0.1,0.3,0.1
			c0.1,0.1,0.2,0.1,0.2,0.2l0.1,0.1c0.2,0.3,0.2,0.5,0.1,0.7c-0.1,0.2-0.5,0.5-1,0.9c-0.4,0.3-0.7,0.5-0.7,0.7
			c-0.1,0.2,0,0.4,0.1,0.6l0.2,0.3l2.2-1.5l-0.3-0.4l0.2-0.1l1.1,1.6l-0.2,0.1l-0.3-0.4l-4.3,2.9l0.3,0.4l-0.2,0.1l-1.1-1.6l0.2-0.1
			L7.6,54l1.9-1.3l-0.2-0.3c-0.1-0.2-0.2-0.3-0.4-0.3c-0.2,0-0.4,0.1-0.8,0.3C7.7,52.8,7.3,53,7.1,53c-0.3,0-0.5-0.1-0.6-0.3
			c-0.1-0.2-0.2-0.4-0.1-0.6c0-0.2,0.1-0.3,0.3-0.4c0.2-0.1,0.3-0.2,0.5-0.2c0.2,0,0.3,0.1,0.4,0.2c0.1,0.1,0.1,0.3,0.1,0.4
			c0,0.1-0.1,0.2-0.2,0.3l-0.1,0.1c-0.1,0-0.1,0.1-0.2,0.1c-0.1,0.1-0.1,0.1-0.1,0.2c0.1,0.1,0.2,0.1,0.5,0c0.2-0.1,0.5-0.3,0.8-0.4
			C8.4,52.1,8.6,52,8.7,52c0.1,0,0.3,0,0.4,0l0,0c-0.2-0.3-0.3-0.6-0.2-1c0.1-0.3,0.3-0.6,0.6-0.8L9.9,50c0.3-0.2,0.5-0.3,0.6-0.5
			c0.1-0.1,0.2-0.3,0.1-0.3c0,0-0.1-0.1-0.1-0.1L10.5,49z M5.7,47.4l0.1,0.2c-0.3,0.2-0.6,0.4-0.8,0.7c-0.3,0.3-0.3,0.7-0.2,0.9
			l0.1,0.1L9.5,47l-0.2-0.4l0.2-0.1l0.9,1.7l-0.2,0.1l-0.2-0.4l-4.6,2.3l0.1,0.1c0.1,0.2,0.3,0.4,0.7,0.4c0.3,0,0.7-0.1,1.2-0.2
			l0.1,0.2l-1.6,0.8l-1.6-3.2L5.7,47.4z M5.2,42.9c0.8-0.3,1.4-0.3,2.1-0.1c0.6,0.2,1,0.5,1.2,1c0.2,0.5,0.1,1-0.3,1.5
			c-0.4,0.6-1,1-1.8,1.3c-0.8,0.3-1.5,0.3-2.2,0.1c-0.6-0.2-1-0.5-1.1-1c-0.2-0.5-0.1-1,0.3-1.5C3.8,43.6,4.4,43.2,5.2,42.9z
			 M6.4,43.6l-1.7,0.6c-0.5,0.2-0.9,0.4-1.1,0.6c-0.3,0.3-0.4,0.6-0.3,0.9c0.1,0.3,0.4,0.5,0.9,0.5c0.3,0,0.6-0.1,1-0.2L7,45.3
			c0.6-0.2,1-0.4,1.2-0.7c0.2-0.2,0.2-0.5,0.1-0.7c-0.1-0.3-0.4-0.5-0.8-0.5C7.2,43.3,6.9,43.4,6.4,43.6z M5.5,38.5
			c0.5-0.1,0.9,0,1.2,0.3c0.3,0.3,0.5,0.6,0.7,1.2l0.4,1.9l-0.2,0l-0.1-0.5l-5,1l0.1,0.5l-0.2,0L2,41c-0.1-0.6-0.1-1,0.1-1.3
			c0.1-0.3,0.4-0.4,0.7-0.5c0.4-0.1,0.6,0,0.9,0.2c0.2,0.2,0.4,0.4,0.6,0.8l0,0c0-0.6,0.2-1,0.5-1.3C5,38.7,5.2,38.6,5.5,38.5z
			 M3.4,40.1l-0.6,0.1c-0.1,0-0.2,0-0.3,0.1c-0.3,0.1-0.4,0.4-0.3,0.7l0.1,0.4L4.4,41l-0.1-0.4c0-0.2-0.1-0.4-0.3-0.5
			C3.8,40,3.6,40,3.4,40.1z M6,39.4l-0.6,0.1c-0.3,0.1-0.5,0.1-0.7,0.2c-0.3,0.2-0.3,0.4-0.3,0.7L4.6,41l2.7-0.5l-0.1-0.4
			c-0.1-0.4-0.2-0.6-0.5-0.7C6.6,39.4,6.4,39.4,6,39.4z M6.8,33.8l0.1,1.8l-0.2,0l0-0.4l-4.2,0.2l3.9,1.2l0.3,0l0-0.4l0.2,0L7,38
			H6.8l0-0.5l-5.1,0.3l0,0.5l-0.2,0l-0.1-1.8l0.2,0l0,0.4l4.2-0.2l-3.9-1.2l-0.4,0l0,0.4l-0.2,0l-0.1-1.8l0.2,0l0,0.5l5.1-0.3l0-0.5
			L6.8,33.8z M0.6,29.8c0.3,0,0.4,0.2,0.6,0.4c0.1,0.2,0.1,0.4,0.1,0.7c0,0.3-0.1,0.6-0.3,0.7c-0.1,0.2-0.3,0.2-0.6,0.2
			c-0.2,0-0.3-0.1-0.3-0.1C0,31.7,0,31.6,0,31.5c0-0.1,0.1-0.2,0.1-0.3c0.1-0.1,0.2-0.1,0.3-0.1c0.1,0,0.1,0,0.2,0.1
			c0.1,0,0.1,0.1,0.1,0.1c0,0,0.1,0.1,0.1,0.1c0.1,0,0.2,0,0.2-0.1c0-0.1,0.1-0.2,0.1-0.3c0-0.2,0-0.3,0-0.4c0-0.1-0.1-0.1-0.2-0.1
			c0,0-0.1,0-0.1,0c0,0-0.1,0.1-0.1,0.1c-0.1,0.1-0.2,0.1-0.2,0.1c-0.1,0-0.2-0.1-0.3-0.1c-0.1-0.1-0.1-0.2-0.1-0.3
			c0-0.1,0.1-0.2,0.1-0.3C0.4,29.9,0.5,29.8,0.6,29.8z M7.2,29.5l-0.2,1.8l-0.2,0l0-0.4l-4.1-0.4l3.7,1.7l0.3,0l0-0.4l0.2,0
			l-0.2,1.8l-0.2,0l0-0.5l-5.1-0.5l0,0.5l-0.2,0l0.2-1.8l0.2,0l0,0.4l4.2,0.4l-3.7-1.7l-0.4,0l0,0.4l-0.2,0l0.2-1.8l0.2,0l-0.1,0.5
			L7,29.9l0-0.5L7.2,29.5z M9.2,22.9l-0.6,1.8l-0.2-0.1l0.2-0.5l-2.4-0.9L6,23.8c-0.1,0.3-0.1,0.5,0.2,0.7c0.1,0.1,0.5,0.3,0.9,0.4
			c0.5,0.2,0.9,0.4,1,0.6c0.1,0.2,0.2,0.4,0.1,0.7c0,0.1-0.1,0.2-0.2,0.3c-0.1,0.1-0.2,0.2-0.3,0.2l-0.1-0.1
			c0.1-0.1,0.1-0.1,0.1-0.1c0-0.2-0.1-0.3-0.5-0.5c-0.3-0.1-0.6-0.3-0.9-0.4c-0.3-0.1-0.4-0.3-0.5-0.5c-0.1-0.2-0.1-0.6-0.1-1
			l-0.1,0c-0.2,0.4-0.4,0.6-0.6,0.7c-0.3,0.2-0.6,0.2-1,0c-0.5-0.2-0.8-0.5-0.8-0.9c0-0.3,0-0.6,0.2-1.1L4,21l0.2,0.1l-0.2,0.5
			l4.8,1.7l0.2-0.5L9.2,22.9z M6,23.2l-2.2-0.8l-0.1,0.4c-0.1,0.3-0.1,0.6,0.1,0.8c0.1,0.1,0.3,0.2,0.5,0.3L4.7,24
			c0.4,0.1,0.7,0.2,0.9,0c0.1-0.1,0.2-0.2,0.3-0.5L6,23.2z M7.5,17.6c0.5,0.3,0.8,0.6,0.9,1c0.1,0.4,0,0.9-0.3,1.4l-0.2,0.4l1.9,1
			l0.3-0.5l0.2,0.1l-0.9,1.7l-0.2-0.1l0.2-0.4l-4.6-2.4l-0.2,0.4l-0.2-0.1l0.9-1.7c0.3-0.6,0.6-0.9,1-1C6.7,17.4,7.1,17.4,7.5,17.6z
			 M7.2,18.6l-0.5-0.3c-0.3-0.2-0.5-0.2-0.7-0.2c-0.2,0-0.4,0.2-0.6,0.5L5.3,19l2.5,1.3L7.9,20C8,19.7,8.1,19.5,8,19.3
			C8,19.1,7.7,18.9,7.2,18.6z M13.9,15.5L12.8,17l-0.2-0.1l0.3-0.4L9,13.6l3.3,4l-0.1,0.1l-4.8-1.9l3.1,2.2c0.3,0.2,0.6,0.4,0.7,0.4
			c0.2,0,0.3,0,0.4-0.1l0.2,0.1L11,19.4l-0.1-0.1c0.1-0.2,0.1-0.3,0-0.5c-0.1-0.2-0.3-0.3-0.6-0.5l-2.6-1.9C7.5,16.1,7.3,16,7.2,16
			c-0.1,0-0.3,0-0.4,0.2l-0.2-0.1l0.9-1.2l3.4,1.3l-2.3-2.8l0.9-1.2l0.1,0.1l-0.3,0.4l4.1,3l0.3-0.4L13.9,15.5z M16.5,12.9l-1.3,1.3
			l-0.1-0.1l0.4-0.4L14.1,13l-0.9,0.9l0.2,0.3l0.2,0.3c0.1,0.1,0.1,0.1,0.1,0.2c0,0,0.1,0.1,0.1,0.1c0.1,0.1,0.2,0.1,0.3,0
			c0.1,0,0.2-0.1,0.3-0.2l0.1,0.1l-0.9,1l-0.1-0.1c0.1-0.1,0.2-0.3,0.1-0.5c0-0.1-0.1-0.3-0.3-0.6L11,10.5l0.3-0.3l4.8,2.8l0.2-0.2
			L16.5,12.9z M14,12.9l-2.1-1.2l1.2,2L14,12.9z M16.7,7.7C17,8.2,17.2,8.6,17.1,9c-0.1,0.4-0.3,0.8-0.8,1.2l-0.3,0.3l1.4,1.7
			l0.4-0.4l0.1,0.2l-1.5,1.2L16.2,13l0.4-0.3l-3.2-4L13,9l-0.1-0.1l1.4-1.2c0.5-0.4,1-0.6,1.4-0.5C16,7.2,16.4,7.4,16.7,7.7z
			 M16,8.5l-0.4-0.5c-0.2-0.3-0.4-0.4-0.5-0.5c-0.2-0.1-0.5,0-0.7,0.3l-0.3,0.2l1.8,2.2l0.2-0.2c0.3-0.2,0.4-0.4,0.4-0.5
			C16.5,9.3,16.3,9,16,8.5z M21.1,6.4c0.4,0.7,0.6,1.3,0.5,2c-0.1,0.7-0.3,1.1-0.8,1.4c-0.4,0.3-0.9,0.3-1.5,0
			c-0.6-0.3-1.2-0.8-1.6-1.5c-0.4-0.7-0.6-1.4-0.5-2.1C17.4,5.7,17.6,5.2,18,5c0.4-0.3,0.9-0.3,1.5,0C20.2,5.2,20.7,5.7,21.1,6.4z
			 M20.7,7.7l-0.9-1.5c-0.3-0.4-0.5-0.8-0.8-1C18.7,5,18.4,5,18.1,5.2c-0.3,0.2-0.4,0.5-0.3,1c0.1,0.3,0.2,0.6,0.4,1l0.9,1.5
			c0.3,0.5,0.6,0.9,0.9,1c0.3,0.1,0.5,0.1,0.7,0c0.3-0.2,0.4-0.5,0.3-0.9C21.1,8.5,21,8.2,20.7,7.7z M37.4,2.8c0,0.8-0.2,1.5-0.6,2
			c-0.4,0.6-0.8,0.8-1.4,0.8c-0.5,0-0.9-0.3-1.3-0.7c-0.4-0.5-0.6-1.2-0.6-2.1c0-0.8,0.2-1.5,0.6-2.1C34.5,0.2,35,0,35.5,0
			c0.5,0,0.9,0.2,1.3,0.8C37.2,1.3,37.4,2,37.4,2.8z M36.4,3.7V1.9c0-0.5-0.1-0.9-0.2-1.2c-0.1-0.3-0.4-0.5-0.7-0.5
			c-0.4,0-0.6,0.2-0.8,0.7c-0.1,0.3-0.1,0.6-0.1,1v1.8c0,0.6,0.1,1.1,0.3,1.4c0.2,0.3,0.4,0.4,0.6,0.4c0.4,0,0.6-0.2,0.7-0.6
			C36.3,4.6,36.4,4.2,36.4,3.7z M26.3,7c-0.1,0.1-0.1,0.2-0.2,0.3c-0.1,0.1-0.1,0.1-0.2,0.2l-0.1,0.1c-0.3,0.1-0.5,0.1-0.7-0.1
			c-0.2-0.2-0.4-0.6-0.7-1.1c-0.2-0.5-0.4-0.7-0.5-0.8c-0.2-0.1-0.4-0.1-0.6,0L23,5.6L24,8l0.5-0.2l0.1,0.2l-1.8,0.7l-0.1-0.2
			l0.4-0.2l-2-4.7l-0.5,0.2l-0.1-0.2l1.8-0.7L22.4,3L22,3.2l0.9,2.2l0.3-0.1c0.2-0.1,0.3-0.2,0.3-0.3c0-0.2,0-0.4-0.2-0.8
			c-0.2-0.6-0.3-1-0.3-1.3c0-0.3,0.2-0.4,0.5-0.6c0.2-0.1,0.4-0.1,0.6,0c0.1,0.1,0.3,0.2,0.3,0.4c0.1,0.2,0.1,0.3,0.1,0.5
			c0,0.2-0.1,0.3-0.3,0.3c-0.1,0.1-0.3,0.1-0.4,0c-0.1-0.1-0.2-0.2-0.3-0.3l-0.1-0.1c0-0.1,0-0.2,0-0.2c0-0.1-0.1-0.1-0.1-0.1
			c-0.1,0.1-0.1,0.2-0.1,0.5c0.1,0.3,0.2,0.5,0.3,0.8c0.1,0.3,0.2,0.5,0.2,0.6c0,0.1,0,0.3-0.1,0.4l0,0c0.4-0.2,0.7-0.2,1,0
			c0.3,0.1,0.5,0.4,0.7,0.8l0.1,0.3c0.1,0.3,0.2,0.5,0.3,0.7C25.9,7,26,7.1,26.1,7c0.1,0,0.1-0.1,0.1-0.1L26.3,7z M27.8,3
			c-0.5,0-0.9,0.4-0.9,1s0.4,0.9,0.9,0.9c0.5,0,0.9-0.4,0.9-0.9S28.3,3,27.8,3z M43.5,2.8c-0.5,0-1,0.4-1,1c0,0.5,0.4,0.9,1,0.9
			c0.5,0,0.9-0.4,0.9-0.9C44.5,3.2,44,2.8,43.5,2.8z"/>
	</g>
	<g>
		<path fill="#FFFFFF" d="M35.7,8C21,8,9.2,19.9,9.2,34.5c0,14.6,11.9,26.5,26.5,26.5c14.6,0,26.5-11.9,26.5-26.5
			C62.2,19.9,50.3,8,35.7,8z M35.6,13.5c1,0,1.8,0.7,2.1,1.6h-2.1h-2.1C34,14.2,34.7,13.5,35.6,13.5z M32.8,16
			c0-0.2,0.2-0.4,0.5-0.4h2.4h2.4c0.2,0,0.4,0.2,0.4,0.4v0.1c0,0.1-0.2,0.5-0.4,0.5h-2.4h-2.4c-0.3,0-0.5-0.4-0.5-0.5V16z
			 M37.7,16.9c-0.3,0.9-1.1,1.6-2.1,1.6c-0.9,0-1.7-0.7-2.1-1.6h2.1H37.7z M18.5,22.2c3.1,0.1,5.3-0.5,7.2-1.2c1.4-0.4,2.6-0.9,4-1
			c1.4-0.2,2.4,0.3,3.1,1.2L32,21.8c-1.1-1.2-3.7-0.5-6,0.4c-0.1,0-0.2,0-0.3,0.1c-2.2,0.7-3.9,1-6.4,1.1L18.5,22.2z M30.3,22
			l-0.2,1.2c-1.7-0.1-2.5,0.5-4.4,1.1c-1.2,0.4-2.6,0.8-4.9,1l-0.8-1.1c2.7-0.1,4.4-0.6,5.7-1.1C27.2,22.5,28.3,21.9,30.3,22z
			 M39,51.8c-0.3,0.7-0.1,1.3-0.5,1.7c-0.4,0.4-1.1,0.4-1.5,0.6v2.2h-0.9v-1.7c-0.2,0-0.2,0.3-0.6,0.2h-0.1c-0.3-0.1-0.2,0-0.7-0.2
			v2.6h-1v-2.8c-0.4-0.1-0.8-0.1-1-0.4c-0.5-0.5-0.1-1.1-0.5-1.6c0-0.5-0.7-0.7-0.9-1.7c-0.1-1,0.3-1.1,0.9-1.8
			c0.4-0.4,0.1-1.1,0.6-1.4c0.4-0.4,0.9-0.5,1.6-0.5l0.6-1.5l-0.8-2l0.7-0.3l0.5,1.4l0.1-0.2l0.4-1.2l0.8,0.3L36,45.4l0.7,1.6
			c0.5,0,1,0.4,1.3,0.8c0.6,0.5,1.1,0.7,1.4,1.4C39.8,49.9,39.2,51.1,39,51.8z M50.6,33.2l-0.7-1c1.1-0.7,1.4-4.9-0.1-5
			c-0.8,0.3-1.2,1.8-1.4,4c-0.5,3.9,1.9,10.9,0,13.5c-0.6,0.9-1.2,1.2-2.3,1.2h-0.5h-8.7v-1.2H45c-1-2-1.1-4.5,0-6.3h-9.4h-9.3
			c1.1,1.7,1,4.3,0,6.3h8.1v1.2h-8.7h-0.5c-1.2,0-1.8-0.3-2.3-1.2c-1.9-2.6,0.4-9.6,0-13.5c-0.3-2.3-0.7-3.7-1.4-4
			c-1.5,0.1-1.2,4.3-0.1,5l-0.7,1c-1.7-1.4-2.1-7,0.8-7h4.2h9.9h10h4.2C52.8,26.3,52.3,31.8,50.6,33.2z M41,22
			c2.1-0.1,3.1,0.5,4.6,1.1c1.3,0.5,2.9,1,5.7,1.1l-0.8,1.1c-2.3-0.2-3.7-0.6-4.9-1c-1.9-0.6-2.7-1.2-4.4-1.1L41,22z M52,23.4
			c-2.4-0.1-4.2-0.4-6.4-1.1c-0.1-0.1-0.2-0.1-0.3-0.1c-2.3-0.9-4.9-1.6-5.9-0.4l-1-0.6c0.7-0.9,1.8-1.4,3.1-1.2
			c1.4,0.1,2.6,0.6,4,1c2,0.7,4.1,1.3,7.3,1.2L52,23.4z M53.5,21.3c-2.1,0.2-3,0-3.8-0.1c-1.2-0.2-2.6-0.7-4.1-1.1
			c-2.3-0.7-4.7-1.3-6.8-0.4c-2.5,1.2-2.1,3-2.1,5.6h-1.1h-0.9c-0.1-2.5,0.3-4.3-2.2-5.6c-2.2-0.9-4.6-0.3-6.9,0.4
			c-1.5,0.4-2.9,0.9-4.1,1.1c-0.8,0.1-1.8,0.3-3.8,0.1l-1-1.3c1.3,0.2,3,0.4,4.7,0.1c1.8-0.4,3-0.8,4.2-1.2c1-0.3,1.9-0.6,3-0.7
			c1.9-0.2,3.3,0,4.5,0.6c1.1,0.5,2,1.5,2.4,2.7c0,0.1,0,0.1,0.1,0.1c0.9-2.7,3.2-3.8,6.9-3.4c1.2,0.1,2.1,0.4,3,0.7
			c1.2,0.4,2.5,0.8,4.2,1.2c1.7,0.3,3.4,0.1,4.7-0.1L53.5,21.3z"/>
		<path fill="#FFFFFF" d="M35.8,47l-0.2-0.5v-0.1L35.3,47c0.3,0,0.3,0,0.3,0C35.7,47,35.7,47,35.8,47z"/>
		<path fill="#FFFFFF" d="M45.6,27.2h-10h-9.9h-2.6c2.9,5.9-2,15.7,1.4,17.5c0.6,0,1-0.5,1.3-1.3c0.3-1.1,0.3-2.5,0-3.6
			c-0.3-0.7-0.7-1.3-1.3-1.4l0.1-1.1h1.2h9.9h10h1.1l0.2,1.1c-0.6,0.1-1,0.6-1.3,1.3c-0.4,1.1-0.3,2.7,0,3.8
			c0.3,0.7,0.7,1.2,1.3,1.2c3.3-1.9-1.6-11.7,1.4-17.5H45.6z"/>
		<path fill="#FFFFFF" d="M35.6,48c-1.6,0-2.7,1.3-2.7,2.7c0,1.6,1.2,2.8,2.7,2.8c1.6,0,2.8-1.3,2.8-2.8C38.5,49.3,37.2,48,35.6,48z
			 M35.6,52.8c-1.1,0-2.1-0.9-2.1-2c0-1.2,1-2.1,2.1-2.1c1.2,0,2.1,0.9,2.1,2.1C37.7,51.9,36.8,52.8,35.6,52.8z"/>
	</g>
</g>
</svg>
