<?xml version="1.0" encoding="utf-8"?>
<!-- Generator: Adobe Illustrator 16.0.3, SVG Export Plug-In . SVG Version: 6.00 Build 0)  -->
<!DOCTYPE svg PUBLIC "-//W3C//DTD SVG 1.1//EN" "http://www.w3.org/Graphics/SVG/1.1/DTD/svg11.dtd">
<svg version="1.1" id="Layer_1" xmlns="http://www.w3.org/2000/svg" xmlns:xlink="http://www.w3.org/1999/xlink" x="0px" y="0px"
	 width="427.859px" height="596.795px" viewBox="0 0 427.859 596.795" enable-background="new 0 0 427.859 596.795"
	 xml:space="preserve">
<g id="поле_под_контакты_3_">
	<g>
		<polygon fill="#FFFFFF" points="200.198,447.653 349.783,596.795 198.793,449.075 		"/>
	</g>
	<polygon fill="none" stroke="#FFFFFF" stroke-width="2" stroke-miterlimit="10" points="426.441,255.331 214.611,45.805 
		1.429,255.486 216.637,465.17 	"/>
	<g>
		<polygon fill="#FFFFFF" points="219.63,51.838 168.898,0 221.041,50.42 		"/>
	</g>
	
		<polygon id="поле_под_контакты_5_" fill="#FFFFFF" stroke="#FFFFFF" stroke-width="2.5621" stroke-miterlimit="10" points="
		424.441,255.331 388.393,218.666 381.68,219.723 365.057,212.549 348.435,219.723 331.813,212.549 315.197,219.723 
		298.579,212.549 281.958,219.723 265.344,212.549 248.723,219.723 232.096,212.549 215.473,219.723 198.852,212.549 
		182.231,219.723 165.605,212.549 148.98,219.723 132.356,212.549 115.729,219.723 99.108,212.549 82.485,219.723 65.853,212.549 
		49.228,219.723 41.617,217.388 4.429,255.486 147.224,396.813 216.637,465.17 284.426,397.263 	"/>
	
		<polygon id="поле_под_контакты_4_" display="none" fill="#FFFFFF" stroke="#FFFFFF" stroke-width="3" stroke-miterlimit="10" points="
		59.338,311.69 148.912,397.772 165.526,405.104 182.148,398.011 198.774,405.226 215.396,398.069 232.018,405.255 248.639,398.086 
		265.266,405.263 281.891,398.09 368.599,313.14 274.646,230 149.444,229.55 	"/>
</g>
<g>
	<path fill="#FFFFFF" stroke="#FFFFFF" stroke-width="2.5621" stroke-miterlimit="10" d="M135.441,177.773
		c0,0,9.688-0.054,24.219-0.134c14.531-0.031,33.906-0.073,53.281-0.115c19.375,0.042,38.75,0.083,53.282,0.115
		c14.527,0.081,24.219,0.135,24.219,0.135s-9.688,0.056-24.219,0.137c-14.531,0.029-33.906,0.071-53.282,0.113
		c-19.375-0.042-38.75-0.084-53.281-0.113C145.128,177.827,135.441,177.773,135.441,177.773z"/>
</g>
<rect x="186.441" y="166.273" fill="#FFFFFF" stroke="#FFFFFF" stroke-width="3" stroke-miterlimit="10" width="58" height="24"/>
<rect x="229.185" y="175.031" transform="matrix(-0.707 0.7072 -0.7072 -0.707 521.4192 139.3569)" fill="#BD1823" width="5.315" height="5.314"/>
<rect x="212.478" y="175.031" transform="matrix(-0.707 0.7072 -0.7072 -0.707 492.9 151.1721)" fill="#BD1823" width="5.315" height="5.314"/>
<rect x="195.77" y="175.014" transform="matrix(-0.707 0.7072 -0.7072 -0.707 464.3683 162.9593)" fill="#BD1823" width="5.315" height="5.314"/>
<path fill-rule="evenodd" clip-rule="evenodd" fill="#F7F6F7" d="M-2.806-19.773c-0.054-0.05-0.108-0.1-0.162-0.15
	C-2.863-19.927-2.81-19.877-2.806-19.773z"/>
<path fill-rule="evenodd" clip-rule="evenodd" fill="#F5F3F5" d="M-2.806-3.65c-0.054-0.049-0.108-0.1-0.163-0.15
	C-2.864-3.804-2.811-3.754-2.806-3.65z"/>
<path fill-rule="evenodd" clip-rule="evenodd" fill="#F7F6F7" d="M-2.968,10.794c0.054-0.05,0.108-0.101,0.162-0.151
	C-2.81,10.747-2.864,10.799-2.968,10.794z"/>
</svg>
