<?xml version="1.0" encoding="utf-8"?>
<!-- Generator: Adobe Illustrator 16.0.3, SVG Export Plug-In . SVG Version: 6.00 Build 0)  -->
<!DOCTYPE svg PUBLIC "-//W3C//DTD SVG 1.1//EN" "http://www.w3.org/Graphics/SVG/1.1/DTD/svg11.dtd">
<svg version="1.1" id="Шар_1" xmlns="http://www.w3.org/2000/svg" xmlns:xlink="http://www.w3.org/1999/xlink" x="0px" y="0px"
	 width="31.7px" height="34px" viewBox="0 0 31.7 34" enable-background="new 0 0 31.7 34" xml:space="preserve">
<path fill="#F7F7F8" d="M25,1.7c-0.1,0-0.1-0.1-0.2-0.1C24.9,1.6,24.9,1.6,25,1.7z"/>
<path opacity="0.4" fill="#4172B2" stroke="#4172B2" stroke-width="0.816" stroke-miterlimit="10" enable-background="new    " d="
	M31.2,18.7c0,3.1,0,6.3,0,9.4c0,0.8-0.2,1-1,1c-1.1-0.1-2.3,0-3.4,0c-0.6,0-0.8,0.1-0.8,0.8c0,1,0,2,0,3c0,0.5-0.1,0.8-0.7,0.8
	c-6.3-0.3-12.6-0.1-18.9-0.1c-0.8,0-1.1-0.2-1-1c0.1-0.8,0-1.6,0-2.4c0.1-0.9-0.3-1.1-1.1-1c-1.1,0.1-2.2,0-3.3,0
	c-0.5,0-0.8-0.1-0.8-0.7c0-6.5,0-13,0-19.5c0-0.5,0.2-0.7,0.7-0.7c1.2,0,2.3,0,3.5,0c0.7,0,1-0.2,1-1c-0.1-2,0-3.9,0-5.9
	c0-0.7,0.1-1,0.9-1c6.3,0,12.5,0,18.8,0c0.7,0,0.9,0.2,0.9,0.9c0,2,0,4,0,6c0,0.7,0.2,0.9,0.9,0.9c1,0,2,0,3,0c1.2,0,1.2,0,1.2,1.3
	C31.2,12.5,31.2,15.6,31.2,18.7z M24.8,1.6c-5.8,0-11.6,0-17.4,0c-0.6,0-0.7,0.2-0.7,0.7c0,1.7,0,3.5,0,5.2c0,0.5,0.2,0.7,0.7,0.7
	c5.6,0,11.3,0,16.9,0C24.8,8.2,25,8,25,7.5c0-1.9,0-3.8,0-5.8C24.9,1.6,24.9,1.6,24.8,1.6z M25,32.1c0-4.8,0-9.5,0-14.3
	c0-0.1-0.1-0.2-0.2-0.1c-5.8,0-11.6,0-17.4,0c-0.6,0-0.7,0.2-0.7,0.7c0,4.4,0,8.8,0,13.2c0,0.6,0.2,0.7,0.7,0.7c5.8,0,11.6,0,17.4,0
	C24.9,32.3,24.9,32.2,25,32.1z"/>
<path fill="#FFFFFF" d="M25,17.8c0,4.8,0,9.5,0,14.3c-0.1,0.1-0.1,0.1-0.2,0.2c-5.8,0-11.6,0-17.4,0c-0.6,0-0.7-0.2-0.7-0.7
	c0-4.4,0-8.8,0-13.2c0-0.6,0.2-0.7,0.7-0.7c5.8,0,11.6,0,17.4,0C24.8,17.7,24.9,17.8,25,17.8z M9.1,29c0,0.1,0.1,0.2,0.2,0.1
	c4.3,0,8.6,0,12.8,0c0.1,0,0.2,0,0.2-0.1c0.2-0.8-0.1-1.1-1-1.1C17.4,28,13.7,28,9.9,28C9.1,28,8.9,28.3,9.1,29z M15.6,24.6
	c2,0,3.9,0,5.9,0c0.4,0,0.8,0,0.8-0.6c0-0.5-0.2-0.7-0.7-0.7c-3.9,0-7.9,0-11.8,0C9.3,23.3,9,23.4,9,24c0,0.6,0.3,0.6,0.8,0.6
	C11.7,24.6,13.7,24.6,15.6,24.6z M15.6,22.2c2,0,4,0,5.9,0c0.4,0,0.7,0,0.7-0.6c0-0.6-0.3-0.5-0.7-0.5c-3.9,0-7.9,0-11.8,0
	c-0.4,0-0.7,0-0.7,0.6c0,0.6,0.3,0.5,0.7,0.5C11.7,22.2,13.6,22.2,15.6,22.2z M15.5,26.8c2,0,4,0,5.9,0c0.4,0,0.7,0.1,0.7-0.5
	c0-0.6-0.4-0.6-0.8-0.6c-3.9,0-7.8,0-11.7,0c-0.4,0-0.7-0.1-0.7,0.5c0,0.6,0.3,0.6,0.8,0.6C11.7,26.8,13.6,26.8,15.5,26.8z"/>
<path fill="#FFFFFF" d="M25,1.7c0,1.9,0,3.8,0,5.8c0,0.5-0.2,0.7-0.7,0.7c-5.6,0-11.3,0-16.9,0C6.8,8.2,6.7,8,6.7,7.5
	c0-1.7,0-3.5,0-5.2c0-0.6,0.2-0.7,0.7-0.7c5.8,0,11.6,0,17.4,0C24.8,1.6,24.9,1.7,25,1.7z"/>
<path fill="#F6F3F5" d="M25,17.8c-0.1,0-0.1-0.1-0.2-0.1C24.9,17.7,24.9,17.7,25,17.8z"/>
<path fill="#F7F7F8" d="M24.8,32.3c0.1-0.1,0.1-0.1,0.2-0.2C24.9,32.2,24.9,32.3,24.8,32.3z"/>
<path opacity="0.4" fill="#4172B2" enable-background="new    " d="M15.6,24.6c-1.9,0-3.9,0-5.9,0c-0.4,0-0.8,0-0.8-0.6
	c0-0.6,0.2-0.7,0.7-0.6c3.9,0,7.9,0,11.8,0c0.5,0,0.7,0.1,0.7,0.7c0,0.6-0.3,0.6-0.8,0.6C19.5,24.6,17.6,24.6,15.6,24.6z"/>
<path opacity="0.4" fill="#4172B2" enable-background="new    " d="M22,29.2c-4.3,0-8.6,0-12.8,0c-0.1-0.1-0.1-0.1-0.2-0.1
	c-0.1-0.7,0-1,0.8-1c3.8,0,7.6,0,11.3-0.1c0.9,0,1.2,0.3,1,1.1C22.1,29.1,22.1,29.1,22,29.2z"/>
<path opacity="0.4" fill="#4172B2" enable-background="new    " d="M15.6,22.2c-2,0-3.9,0-5.9,0c-0.4,0-0.7,0-0.7-0.5
	c0-0.5,0.3-0.6,0.7-0.6c3.9,0,7.9,0,11.8,0c0.4,0,0.7,0,0.7,0.5c0,0.5-0.3,0.6-0.7,0.6C19.6,22.2,17.6,22.2,15.6,22.2z"/>
<path opacity="0.4" fill="#4172B2" enable-background="new    " d="M15.5,26.8c-1.9,0-3.8,0-5.8,0c-0.4,0-0.8,0-0.8-0.6
	c0-0.6,0.4-0.5,0.7-0.5c3.9,0,7.8,0,11.7,0c0.4,0,0.8,0,0.8,0.6c0,0.6-0.4,0.5-0.7,0.5C19.5,26.8,17.5,26.8,15.5,26.8z"/>
<path opacity="0.4" fill="#263E63" enable-background="new    " d="M9.1,29c0.1,0.1,0.1,0.1,0.2,0.1C9.1,29.2,9.1,29.1,9.1,29z"/>
<path opacity="0.4" fill="#263E63" enable-background="new    " d="M22,29.2c0.1-0.1,0.1-0.1,0.2-0.1C22.2,29.1,22.1,29.2,22,29.2z"
	/>
</svg>
