<?xml version="1.0" encoding="utf-8"?>
<!-- Generator: Adobe Illustrator 16.0.3, SVG Export Plug-In . SVG Version: 6.00 Build 0)  -->
<!DOCTYPE svg PUBLIC "-//W3C//DTD SVG 1.1//EN" "http://www.w3.org/Graphics/SVG/1.1/DTD/svg11.dtd">
<svg version="1.1" id="Шар_1" xmlns="http://www.w3.org/2000/svg" xmlns:xlink="http://www.w3.org/1999/xlink" x="0px" y="0px"
	 width="37.5px" height="37.5px" viewBox="0 0 37.5 37.5" enable-background="new 0 0 37.5 37.5" xml:space="preserve">
<g>
	
		<rect x="6.8" y="6.8" transform="matrix(-0.7071 0.7071 -0.7071 -0.7071 45.2387 18.7371)" fill="none" stroke="#325AA1" stroke-width="2" stroke-miterlimit="10" width="23.8" height="23.9"/>
	<g>
		<g id="крестик_1_">
			<g>
				<path fill="#1E58A1" d="M0,37.5c0,0,2.1-2.6,5.5-6.3c1.7-1.8,3.6-4,5.8-6.2c1.1-1.1,2.2-2.3,3.3-3.4c1.1-1.2,2.3-2.3,3.5-3.5
					c1.2-1.2,2.4-2.3,3.5-3.5c1.2-1.2,2.3-2.2,3.4-3.3c2.2-2.1,4.4-4.1,6.2-5.8C34.9,2.1,37.5,0,37.5,0S35.4,2.6,32,6.3
					c-1.7,1.8-3.6,4-5.8,6.2c-1.1,1.1-2.2,2.3-3.3,3.4c-1.1,1.2-2.3,2.3-3.5,3.5c-1.2,1.2-2.4,2.3-3.5,3.5c-1.2,1.1-2.3,2.2-3.4,3.3
					c-2.2,2.1-4.4,4.1-6.2,5.8C2.6,35.4,0,37.5,0,37.5z"/>
			</g>
			<g>
				<path fill="#1E58A1" d="M0,0c0,0,2.6,2.1,6.3,5.5c1.8,1.7,4,3.6,6.2,5.8c1.1,1.1,2.3,2.2,3.4,3.3c1.2,1.1,2.3,2.3,3.5,3.5
					c1.2,1.2,2.3,2.4,3.5,3.5c1.2,1.2,2.2,2.3,3.3,3.4c2.1,2.2,4.1,4.4,5.8,6.2c3.3,3.7,5.5,6.3,5.5,6.3s-2.6-2.1-6.3-5.5
					c-1.8-1.7-4-3.6-6.2-5.8c-1.1-1.1-2.3-2.2-3.4-3.3c-1.2-1.1-2.3-2.3-3.5-3.5c-1.2-1.2-2.3-2.4-3.5-3.5c-1.1-1.2-2.2-2.3-3.3-3.4
					c-2.1-2.2-4.1-4.4-5.8-6.2C2.1,2.6,0,0,0,0z"/>
			</g>
		</g>
	</g>
</g>
</svg>
